<?xml version="1.0" encoding="UTF-8" standalone="no"?>
<!DOCTYPE svg PUBLIC "-//W3C//DTD SVG 1.1//EN"
 "http://www.w3.org/Graphics/SVG/1.1/DTD/svg11.dtd">
<!-- Generated by graphviz version 12.2.1 (20241206.2353)
 -->
<!-- Title: LangGraphWorkflow Pages: 1 -->
<svg width="525pt" height="1292pt"
 viewBox="0.00 0.00 525.00 1292.12" xmlns="http://www.w3.org/2000/svg" xmlns:xlink="http://www.w3.org/1999/xlink">
<g id="graph0" class="graph" transform="scale(1 1) rotate(0) translate(4 1288.12)">
<title>LangGraphWorkflow</title>
<polygon fill="white" stroke="none" points="-4,4 -4,-1288.12 521,-1288.12 521,4 -4,4"/>
<g id="clust1" class="cluster">
<title>cluster_s1</title>
<polygon fill="none" stroke="black" points="61,-1144.62 61,-1221.12 509,-1221.12 509,-1144.62 61,-1144.62"/>
<text text-anchor="middle" x="285" y="-1203.82" font-family="Times,serif" font-size="14.00">Stage 1: Analyst Team</text>
</g>
<g id="clust2" class="cluster">
<title>cluster_s2</title>
<polygon fill="none" stroke="black" points="128,-817.62 128,-1052.62 316,-1052.62 316,-817.62 128,-817.62"/>
<text text-anchor="middle" x="222" y="-1035.32" font-family="Times,serif" font-size="14.00">Stage 2: Research Debate</text>
</g>
<g id="clust3" class="cluster">
<title>cluster_s3</title>
<polygon fill="none" stroke="black" points="154,-649.12 154,-725.62 253,-725.62 253,-649.12 154,-649.12"/>
<text text-anchor="middle" x="203.5" y="-708.32" font-family="Times,serif" font-size="14.00">Stage 3: Trader</text>
</g>
<g id="clust4" class="cluster">
<title>cluster_s4</title>
<polygon fill="none" stroke="black" points="8,-322.12 8,-557.12 196,-557.12 196,-322.12 8,-322.12"/>
<text text-anchor="middle" x="102" y="-539.82" font-family="Times,serif" font-size="14.00">Stage 4: Risk Debate</text>
</g>
<g id="clust5" class="cluster">
<title>cluster_s5</title>
<polygon fill="none" stroke="black" points="13,-153.62 13,-230.12 177,-230.12 177,-153.62 13,-153.62"/>
<text text-anchor="middle" x="95" y="-212.82" font-family="Times,serif" font-size="14.00">Stage 5: Portfolio Manager</text>
</g>
<!-- Start -->
<g id="node1" class="node">
<title>Start</title>
<ellipse fill="#d4edda" stroke="#999999" cx="249" cy="-1266.12" rx="69.8" ry="18"/>
<text text-anchor="middle" x="249" y="-1261.84" font-family="Times,serif" font-size="12.00">User: Ticker + Date</text>
</g>
<!-- MA -->
<g id="node2" class="node">
<title>MA</title>
<polygon fill="#eeeeee" stroke="#999999" points="157.38,-1188.62 68.62,-1188.62 68.62,-1152.62 157.38,-1152.62 157.38,-1188.62"/>
<text text-anchor="middle" x="113" y="-1166.34" font-family="Times,serif" font-size="12.00">Market Analyst</text>
</g>
<!-- Start&#45;&gt;MA -->
<g id="edge1" class="edge">
<title>Start&#45;&gt;MA</title>
<path fill="none" stroke="#666666" d="M216.36,-1249.97C200.87,-1242.19 182.41,-1232.06 167,-1221.12 156.89,-1213.94 146.65,-1205.05 137.84,-1196.79"/>
<polygon fill="#666666" stroke="#666666" points="140.29,-1194.3 130.66,-1189.88 135.44,-1199.34 140.29,-1194.3"/>
</g>
<!-- SA -->
<g id="node3" class="node">
<title>SA</title>
<polygon fill="#eeeeee" stroke="#999999" points="260.12,-1188.62 175.88,-1188.62 175.88,-1152.62 260.12,-1152.62 260.12,-1188.62"/>
<text text-anchor="middle" x="218" y="-1166.34" font-family="Times,serif" font-size="12.00">Social Analyst</text>
</g>
<!-- Start&#45;&gt;SA -->
<g id="edge2" class="edge">
<title>Start&#45;&gt;SA</title>
<path fill="none" stroke="#666666" d="M243.31,-1247.97C238.84,-1234.48 232.52,-1215.4 227.31,-1199.69"/>
<polygon fill="#666666" stroke="#666666" points="230.7,-1198.8 224.23,-1190.41 224.06,-1201.01 230.7,-1198.8"/>
</g>
<!-- NA -->
<g id="node4" class="node">
<title>NA</title>
<polygon fill="#eeeeee" stroke="#999999" points="361.38,-1188.62 278.62,-1188.62 278.62,-1152.62 361.38,-1152.62 361.38,-1188.62"/>
<text text-anchor="middle" x="320" y="-1166.34" font-family="Times,serif" font-size="12.00">News Analyst</text>
</g>
<!-- Start&#45;&gt;NA -->
<g id="edge3" class="edge">
<title>Start&#45;&gt;NA</title>
<path fill="none" stroke="#666666" d="M262.02,-1247.97C272.66,-1233.95 287.88,-1213.91 300.06,-1197.88"/>
<polygon fill="#666666" stroke="#666666" points="302.64,-1200.26 305.9,-1190.18 297.07,-1196.03 302.64,-1200.26"/>
</g>
<!-- FA -->
<g id="node5" class="node">
<title>FA</title>
<polygon fill="#eeeeee" stroke="#999999" points="500.5,-1188.62 379.5,-1188.62 379.5,-1152.62 500.5,-1152.62 500.5,-1188.62"/>
<text text-anchor="middle" x="440" y="-1166.34" font-family="Times,serif" font-size="12.00">Fundamentals Analyst</text>
</g>
<!-- Start&#45;&gt;FA -->
<g id="edge4" class="edge">
<title>Start&#45;&gt;FA</title>
<path fill="none" stroke="#666666" d="M293.89,-1251.97C317.23,-1244.35 345.84,-1233.76 370,-1221.12 383.63,-1213.98 397.67,-1204.54 409.56,-1195.82"/>
<polygon fill="#666666" stroke="#666666" points="411.49,-1198.75 417.38,-1189.94 407.28,-1193.15 411.49,-1198.75"/>
</g>
<!-- Reports -->
<g id="node6" class="node">
<title>Reports</title>
<ellipse fill="#fff3cd" stroke="#999999" cx="268" cy="-1097.62" rx="66.94" ry="18"/>
<text text-anchor="middle" x="268" y="-1093.34" font-family="Times,serif" font-size="12.00">Combined Reports</text>
</g>
<!-- MA&#45;&gt;Reports -->
<g id="edge5" class="edge">
<title>MA&#45;&gt;Reports</title>
<path fill="none" stroke="#666666" d="M150.46,-1152.24C156,-1149.68 161.65,-1147.08 167,-1144.62 185.79,-1135.99 206.58,-1126.51 224.39,-1118.41"/>
<polygon fill="#666666" stroke="#666666" points="225.74,-1121.64 233.39,-1114.32 222.84,-1115.27 225.74,-1121.64"/>
</g>
<!-- SA&#45;&gt;Reports -->
<g id="edge6" class="edge">
<title>SA&#45;&gt;Reports</title>
<path fill="none" stroke="#666666" d="M230.1,-1152.43C235.94,-1144.15 243.06,-1134.03 249.55,-1124.81"/>
<polygon fill="#666666" stroke="#666666" points="252.24,-1127.08 255.14,-1116.89 246.52,-1123.05 252.24,-1127.08"/>
</g>
<!-- NA&#45;&gt;Reports -->
<g id="edge7" class="edge">
<title>NA&#45;&gt;Reports</title>
<path fill="none" stroke="#666666" d="M307.41,-1152.43C301.34,-1144.15 293.93,-1134.03 287.18,-1124.81"/>
<polygon fill="#666666" stroke="#666666" points="290.1,-1122.87 281.37,-1116.87 284.45,-1127 290.1,-1122.87"/>
</g>
<!-- FA&#45;&gt;Reports -->
<g id="edge8" class="edge">
<title>FA&#45;&gt;Reports</title>
<path fill="none" stroke="#666666" d="M397.92,-1152.25C372.49,-1141.75 340.04,-1128.36 313.94,-1117.58"/>
<polygon fill="#666666" stroke="#666666" points="315.52,-1114.45 304.95,-1113.87 312.85,-1120.92 315.52,-1114.45"/>
</g>
<!-- Bull -->
<g id="node7" class="node">
<title>Bull</title>
<polygon fill="#eeeeee" stroke="#999999" points="259.88,-1020.12 168.12,-1020.12 168.12,-984.12 259.88,-984.12 259.88,-1020.12"/>
<text text-anchor="middle" x="214" y="-997.84" font-family="Times,serif" font-size="12.00">Bull Researcher</text>
</g>
<!-- Reports&#45;&gt;Bull -->
<g id="edge9" class="edge">
<title>Reports&#45;&gt;Bull</title>
<path fill="none" stroke="#666666" d="M258.1,-1079.47C250.15,-1065.72 238.86,-1046.16 229.69,-1030.28"/>
<polygon fill="#666666" stroke="#666666" points="232.81,-1028.7 224.78,-1021.79 226.75,-1032.2 232.81,-1028.7"/>
</g>
<!-- Bear -->
<g id="node8" class="node">
<title>Bear</title>
<polygon fill="#eeeeee" stroke="#999999" points="271,-934.62 177,-934.62 177,-898.62 271,-898.62 271,-934.62"/>
<text text-anchor="middle" x="224" y="-912.34" font-family="Times,serif" font-size="12.00">Bear Researcher</text>
</g>
<!-- Reports&#45;&gt;Bear -->
<g id="edge10" class="edge">
<title>Reports&#45;&gt;Bear</title>
<path fill="none" stroke="#666666" d="M277.46,-1079.7C291.95,-1051.28 315.53,-993.11 291,-952.62 288.17,-947.95 284.5,-943.88 280.33,-940.33"/>
<polygon fill="#666666" stroke="#666666" points="282.57,-937.63 272.4,-934.64 278.48,-943.32 282.57,-937.63"/>
</g>
<!-- Bull&#45;&gt;Bear -->
<g id="edge13" class="edge">
<title>Bull&#45;&gt;Bear</title>
<path fill="none" stroke="#666666" stroke-dasharray="5,2" d="M176.88,-983.63C164.58,-975.28 155.59,-964.51 162.5,-952.62 166.64,-945.5 172.82,-939.72 179.7,-935.05"/>
<text text-anchor="middle" x="193.25" y="-955.67" font-family="Times,serif" font-size="11.00">debate rounds</text>
</g>
<!-- Judge1 -->
<g id="node9" class="node">
<title>Judge1</title>
<polygon fill="#eeeeee" stroke="#999999" points="250.38,-861.62 155.62,-861.62 155.62,-825.62 250.38,-825.62 250.38,-861.62"/>
<text text-anchor="middle" x="203" y="-839.34" font-family="Times,serif" font-size="12.00">Judge / Manager</text>
</g>
<!-- Bull&#45;&gt;Judge1 -->
<g id="edge11" class="edge">
<title>Bull&#45;&gt;Judge1</title>
<path fill="none" stroke="#666666" d="M172.76,-983.69C166.04,-978.99 159.99,-973.19 156,-966.12 138.37,-934.9 160.6,-895.75 180.08,-870.47"/>
<polygon fill="#666666" stroke="#666666" points="182.55,-872.98 186.11,-863 177.1,-868.58 182.55,-872.98"/>
</g>
<!-- Bear&#45;&gt;Bull -->
<g id="edge14" class="edge">
<title>Bear&#45;&gt;Bull</title>
<path fill="none" stroke="#666666" stroke-dasharray="5,2" d="M225.16,-934.76C225.49,-944.08 225.45,-955.78 224,-966.12 223.18,-972 221.61,-978.28 219.96,-983.88"/>
<text text-anchor="middle" x="255.9" y="-955.67" font-family="Times,serif" font-size="11.00">debate rounds</text>
</g>
<!-- Bear&#45;&gt;Judge1 -->
<g id="edge12" class="edge">
<title>Bear&#45;&gt;Judge1</title>
<path fill="none" stroke="#666666" d="M218.92,-898.43C216.62,-890.67 213.85,-881.3 211.27,-872.57"/>
<polygon fill="#666666" stroke="#666666" points="214.66,-871.7 208.47,-863.1 207.95,-873.68 214.66,-871.7"/>
</g>
<!-- InvestmentPlan -->
<g id="node10" class="node">
<title>InvestmentPlan</title>
<ellipse fill="#fff3cd" stroke="#999999" cx="203" cy="-770.62" rx="58.36" ry="18"/>
<text text-anchor="middle" x="203" y="-766.34" font-family="Times,serif" font-size="12.00">Investment Plan</text>
</g>
<!-- Judge1&#45;&gt;InvestmentPlan -->
<g id="edge15" class="edge">
<title>Judge1&#45;&gt;InvestmentPlan</title>
<path fill="none" stroke="#666666" d="M203,-825.43C203,-817.84 203,-808.72 203,-800.16"/>
<polygon fill="#666666" stroke="#666666" points="206.5,-800.16 203,-790.16 199.5,-800.16 206.5,-800.16"/>
</g>
<!-- Trader -->
<g id="node11" class="node">
<title>Trader</title>
<polygon fill="#eeeeee" stroke="#999999" points="242.12,-693.12 163.88,-693.12 163.88,-657.12 242.12,-657.12 242.12,-693.12"/>
<text text-anchor="middle" x="203" y="-670.84" font-family="Times,serif" font-size="12.00">Trader Agent</text>
</g>
<!-- InvestmentPlan&#45;&gt;Trader -->
<g id="edge16" class="edge">
<title>InvestmentPlan&#45;&gt;Trader</title>
<path fill="none" stroke="#666666" d="M203,-752.47C203,-739.11 203,-720.27 203,-704.65"/>
<polygon fill="#666666" stroke="#666666" points="206.5,-704.99 203,-694.99 199.5,-704.99 206.5,-704.99"/>
</g>
<!-- TradingPlan -->
<g id="node12" class="node">
<title>TradingPlan</title>
<ellipse fill="#fff3cd" stroke="#999999" cx="203" cy="-602.12" rx="48.81" ry="18"/>
<text text-anchor="middle" x="203" y="-597.84" font-family="Times,serif" font-size="12.00">Trading Plan</text>
</g>
<!-- Trader&#45;&gt;TradingPlan -->
<g id="edge17" class="edge">
<title>Trader&#45;&gt;TradingPlan</title>
<path fill="none" stroke="#666666" d="M203,-656.93C203,-649.34 203,-640.22 203,-631.66"/>
<polygon fill="#666666" stroke="#666666" points="206.5,-631.66 203,-621.66 199.5,-631.66 206.5,-631.66"/>
</g>
<!-- Agg -->
<g id="node13" class="node">
<title>Agg</title>
<polygon fill="#eeeeee" stroke="#999999" points="123.62,-524.62 54.38,-524.62 54.38,-488.62 123.62,-488.62 123.62,-524.62"/>
<text text-anchor="middle" x="89" y="-502.34" font-family="Times,serif" font-size="12.00">Aggressive</text>
</g>
<!-- TradingPlan&#45;&gt;Agg -->
<g id="edge18" class="edge">
<title>TradingPlan&#45;&gt;Agg</title>
<path fill="none" stroke="#666666" d="M183.66,-585.26C165.84,-570.64 139.14,-548.74 118.63,-531.92"/>
<polygon fill="#666666" stroke="#666666" points="121.1,-529.42 111.15,-525.79 116.66,-534.84 121.1,-529.42"/>
</g>
<!-- Con -->
<g id="node14" class="node">
<title>Con</title>
<polygon fill="#eeeeee" stroke="#999999" points="116.12,-439.12 37.88,-439.12 37.88,-403.12 116.12,-403.12 116.12,-439.12"/>
<text text-anchor="middle" x="77" y="-416.84" font-family="Times,serif" font-size="12.00">Conservative</text>
</g>
<!-- TradingPlan&#45;&gt;Con -->
<g id="edge19" class="edge">
<title>TradingPlan&#45;&gt;Con</title>
<path fill="none" stroke="#666666" d="M204.12,-583.72C205.06,-554.07 202.62,-493.43 171,-457.12 170.14,-456.13 149.18,-448.29 127.27,-440.28"/>
<polygon fill="#666666" stroke="#666666" points="128.54,-437.01 117.95,-436.88 126.14,-443.59 128.54,-437.01"/>
</g>
<!-- Neu -->
<g id="node15" class="node">
<title>Neu</title>
<polygon fill="#eeeeee" stroke="#999999" points="188,-439.12 134,-439.12 134,-403.12 188,-403.12 188,-439.12"/>
<text text-anchor="middle" x="161" y="-416.84" font-family="Times,serif" font-size="12.00">Neutral</text>
</g>
<!-- TradingPlan&#45;&gt;Neu -->
<g id="edge20" class="edge">
<title>TradingPlan&#45;&gt;Neu</title>
<path fill="none" stroke="#666666" d="M210.65,-583.87C222,-555.48 239.65,-497.98 217,-457.12 212.62,-449.22 205.64,-442.87 198.07,-437.86"/>
<polygon fill="#666666" stroke="#666666" points="200.03,-434.96 189.62,-432.98 196.53,-441.02 200.03,-434.96"/>
</g>
<!-- Agg&#45;&gt;Con -->
<g id="edge24" class="edge">
<title>Agg&#45;&gt;Con</title>
<path fill="none" stroke="#666666" stroke-dasharray="5,2" d="M57.45,-488.23C51.42,-483.37 45.93,-477.49 42.5,-470.62 36.96,-459.52 44.2,-448.17 53.45,-439.24"/>
<text text-anchor="middle" x="73.25" y="-460.17" font-family="Times,serif" font-size="11.00">debate rounds</text>
</g>
<!-- Judge2 -->
<g id="node16" class="node">
<title>Judge2</title>
<polygon fill="#eeeeee" stroke="#999999" points="111.25,-366.12 42.75,-366.12 42.75,-330.12 111.25,-330.12 111.25,-366.12"/>
<text text-anchor="middle" x="77" y="-343.84" font-family="Times,serif" font-size="12.00">Risk Judge</text>
</g>
<!-- Agg&#45;&gt;Judge2 -->
<g id="edge21" class="edge">
<title>Agg&#45;&gt;Judge2</title>
<path fill="none" stroke="#666666" d="M55.36,-488.26C48.45,-483.37 41.82,-477.47 37,-470.62 28.68,-458.81 30.79,-453.45 29,-439.12 27.02,-423.24 23.31,-418.07 29,-403.12 33,-392.59 40.1,-382.8 47.64,-374.53"/>
<polygon fill="#666666" stroke="#666666" points="49.96,-377.16 54.47,-367.58 44.97,-372.26 49.96,-377.16"/>
</g>
<!-- Con&#45;&gt;Agg -->
<g id="edge25" class="edge">
<title>Con&#45;&gt;Agg</title>
<path fill="none" stroke="#666666" stroke-dasharray="5,2" d="M93.81,-439.3C97.95,-444.59 101.82,-450.73 104,-457.12 107.53,-467.46 104.12,-479.17 99.66,-488.48"/>
<text text-anchor="middle" x="136.21" y="-460.17" font-family="Times,serif" font-size="11.00">debate rounds</text>
</g>
<!-- Con&#45;&gt;Judge2 -->
<g id="edge22" class="edge">
<title>Con&#45;&gt;Judge2</title>
<path fill="none" stroke="#666666" d="M77,-402.93C77,-395.34 77,-386.22 77,-377.66"/>
<polygon fill="#666666" stroke="#666666" points="80.5,-377.66 77,-367.66 73.5,-377.66 80.5,-377.66"/>
</g>
<!-- Neu&#45;&gt;Judge2 -->
<g id="edge23" class="edge">
<title>Neu&#45;&gt;Judge2</title>
<path fill="none" stroke="#666666" d="M140.67,-402.93C130.32,-394.19 117.56,-383.4 106.19,-373.79"/>
<polygon fill="#666666" stroke="#666666" points="108.49,-371.15 98.59,-367.37 103.97,-376.5 108.49,-371.15"/>
</g>
<!-- FinalRisk -->
<g id="node17" class="node">
<title>FinalRisk</title>
<ellipse fill="#fff3cd" stroke="#999999" cx="77" cy="-275.12" rx="68.85" ry="18"/>
<text text-anchor="middle" x="77" y="-270.84" font-family="Times,serif" font-size="12.00">Risk&#45;Adjusted Plan</text>
</g>
<!-- Judge2&#45;&gt;FinalRisk -->
<g id="edge26" class="edge">
<title>Judge2&#45;&gt;FinalRisk</title>
<path fill="none" stroke="#666666" d="M77,-329.93C77,-322.34 77,-313.22 77,-304.66"/>
<polygon fill="#666666" stroke="#666666" points="80.5,-304.66 77,-294.66 73.5,-304.66 80.5,-304.66"/>
</g>
<!-- PM -->
<g id="node18" class="node">
<title>PM</title>
<polygon fill="#eeeeee" stroke="#999999" points="128.12,-197.62 25.88,-197.62 25.88,-161.62 128.12,-161.62 128.12,-197.62"/>
<text text-anchor="middle" x="77" y="-175.34" font-family="Times,serif" font-size="12.00">Portfolio Manager</text>
</g>
<!-- FinalRisk&#45;&gt;PM -->
<g id="edge27" class="edge">
<title>FinalRisk&#45;&gt;PM</title>
<path fill="none" stroke="#666666" d="M77,-256.97C77,-243.61 77,-224.77 77,-209.15"/>
<polygon fill="#666666" stroke="#666666" points="80.5,-209.49 77,-199.49 73.5,-209.49 80.5,-209.49"/>
</g>
<!-- Decision -->
<g id="node19" class="node">
<title>Decision</title>
<ellipse fill="#d4edda" stroke="#999999" cx="77" cy="-98.81" rx="68.06" ry="25.81"/>
<text text-anchor="middle" x="77" y="-101.66" font-family="Times,serif" font-size="12.00">Buy / Sell / Hold</text>
<text text-anchor="middle" x="77" y="-87.41" font-family="Times,serif" font-size="12.00">+ Reasoning</text>
</g>
<!-- PM&#45;&gt;Decision -->
<g id="edge28" class="edge">
<title>PM&#45;&gt;Decision</title>
<path fill="none" stroke="#666666" d="M77,-161.13C77,-153.83 77,-145.07 77,-136.48"/>
<polygon fill="#666666" stroke="#666666" points="80.5,-136.54 77,-126.54 73.5,-136.54 80.5,-136.54"/>
</g>
<!-- Save -->
<g id="node20" class="node">
<title>Save</title>
<path fill="#f0f9f0" stroke="#999999" d="M113.88,-32.73C113.88,-34.53 97.35,-36 77,-36 56.65,-36 40.12,-34.53 40.12,-32.73 40.12,-32.73 40.12,-3.27 40.12,-3.27 40.12,-1.47 56.65,0 77,0 97.35,0 113.88,-1.47 113.88,-3.27 113.88,-3.27 113.88,-32.73 113.88,-32.73"/>
<path fill="none" stroke="#999999" d="M113.88,-32.73C113.88,-30.92 97.35,-29.45 77,-29.45 56.65,-29.45 40.12,-30.92 40.12,-32.73"/>
<text text-anchor="middle" x="77" y="-13.72" font-family="Times,serif" font-size="12.00">signals table</text>
</g>
<!-- Decision&#45;&gt;Save -->
<g id="edge29" class="edge">
<title>Decision&#45;&gt;Save</title>
<path fill="none" stroke="#666666" d="M77,-72.87C77,-64.87 77,-55.95 77,-47.71"/>
<polygon fill="#666666" stroke="#666666" points="80.5,-47.81 77,-37.81 73.5,-47.81 80.5,-47.81"/>
</g>
</g>
</svg>
