<?xml version="1.0" encoding="UTF-8" standalone="no"?>
<!DOCTYPE svg PUBLIC "-//W3C//DTD SVG 1.1//EN"
 "http://www.w3.org/Graphics/SVG/1.1/DTD/svg11.dtd">
<!-- Generated by graphviz version 12.2.1 (20241206.2353)
 -->
<!-- Title: PersistenceArchitecture Pages: 1 -->
<svg width="786pt" height="364pt"
 viewBox="0.00 0.00 786.00 363.75" xmlns="http://www.w3.org/2000/svg" xmlns:xlink="http://www.w3.org/1999/xlink">
<g id="graph0" class="graph" transform="scale(1 1) rotate(0) translate(4 359.75)">
<title>PersistenceArchitecture</title>
<polygon fill="white" stroke="none" points="-4,4 -4,-359.75 782,-359.75 782,4 -4,4"/>
<g id="clust1" class="cluster">
<title>cluster_authoritative</title>
<polygon fill="none" stroke="black" points="100,-255.75 100,-347.75 296,-347.75 296,-255.75 100,-255.75"/>
<text text-anchor="middle" x="198" y="-330.45" font-family="Times,serif" font-size="14.00">Authoritative Sources</text>
</g>
<g id="clust2" class="cluster">
<title>cluster_aiartefacts</title>
<polygon fill="none" stroke="black" points="8,-8 8,-85.75 770,-85.75 770,-8 8,-8"/>
<text text-anchor="middle" x="389" y="-68.45" font-family="Times,serif" font-size="14.00">AI Artefacts (SQLite WAL)</text>
</g>
<g id="clust3" class="cluster">
<title>cluster_ephemeral</title>
<polygon fill="none" stroke="black" points="293,-117.25 293,-224.25 734,-224.25 734,-117.25 293,-117.25"/>
<text text-anchor="middle" x="513.5" y="-206.95" font-family="Times,serif" font-size="14.00">Ephemeral / Cache</text>
</g>
<!-- hLedger -->
<g id="node1" class="node">
<title>hLedger</title>
<polygon fill="#d4edda" stroke="#999999" points="287.75,-315.25 108.25,-315.25 108.25,-263.75 287.75,-263.75 287.75,-315.25"/>
<text text-anchor="middle" x="198" y="-299.85" font-family="Times,serif" font-size="12.00">hLedger</text>
<text text-anchor="middle" x="198" y="-285.6" font-family="Times,serif" font-size="12.00">~/.hledger.journal</text>
<text text-anchor="middle" x="198" y="-271.35" font-family="Times,serif" font-size="12.00">▸ Positions ▸ Transactions ▸ Prices</text>
</g>
<!-- Hono -->
<g id="node10" class="node">
<title>Hono</title>
<polygon fill="#e8f4fd" stroke="#999999" points="248,-176.5 148,-176.5 148,-140.5 248,-140.5 248,-176.5"/>
<text text-anchor="middle" x="198" y="-154.22" font-family="Times,serif" font-size="12.00">Bun/Hono Server</text>
</g>
<!-- hLedger&#45;&gt;Hono -->
<g id="edge1" class="edge">
<title>hLedger&#45;&gt;Hono</title>
<path fill="none" stroke="#666666" stroke-dasharray="5,2" d="M198,-263.32C198,-241.69 198,-210.52 198,-187.99"/>
<polygon fill="#666666" stroke="#666666" points="201.5,-188.29 198,-178.29 194.5,-188.29 201.5,-188.29"/>
<text text-anchor="middle" x="219" y="-235.3" font-family="Times,serif" font-size="11.00">read&#45;only</text>
</g>
<!-- SQLite -->
<g id="node2" class="node">
<title>SQLite</title>
<path fill="#fff3cd" stroke="#999999" d="M87.75,-49.35C87.75,-51.16 71.73,-52.62 52,-52.62 32.27,-52.62 16.25,-51.16 16.25,-49.35 16.25,-49.35 16.25,-19.9 16.25,-19.9 16.25,-18.09 32.27,-16.62 52,-16.62 71.73,-16.62 87.75,-18.09 87.75,-19.9 87.75,-19.9 87.75,-49.35 87.75,-49.35"/>
<path fill="none" stroke="#999999" d="M87.75,-49.35C87.75,-47.55 71.73,-46.08 52,-46.08 32.27,-46.08 16.25,-47.55 16.25,-49.35"/>
<text text-anchor="middle" x="52" y="-30.35" font-family="Times,serif" font-size="12.00">portfolio.db</text>
</g>
<!-- SQLite&#45;&gt;Hono -->
<g id="edge2" class="edge">
<title>SQLite&#45;&gt;Hono</title>
<path fill="none" stroke="#666666" d="M65.73,-52.74C74.23,-62.86 85.66,-75.63 97,-85.75 116.77,-103.39 140.9,-120.67 160.62,-133.85"/>
<polygon fill="#666666" stroke="#666666" points="158.65,-136.74 168.93,-139.32 162.5,-130.9 158.65,-136.74"/>
<text text-anchor="middle" x="143.43" y="-96.8" font-family="Times,serif" font-size="11.00">read/write</text>
</g>
<!-- Signals -->
<g id="node3" class="node">
<title>Signals</title>
<polygon fill="#fff3cd" stroke="#999999" points="290,-53.25 106,-53.25 106,-16 290,-16 290,-53.25"/>
<text text-anchor="middle" x="198" y="-37.85" font-family="Times,serif" font-size="12.00">signals</text>
<text text-anchor="middle" x="198" y="-23.6" font-family="Times,serif" font-size="12.00">▸ Signal ▸ Reasoning ▸ Confidence</text>
</g>
<!-- Analyses -->
<g id="node4" class="node">
<title>Analyses</title>
<polygon fill="#fff3cd" stroke="#999999" points="480.38,-53.25 307.62,-53.25 307.62,-16 480.38,-16 480.38,-53.25"/>
<text text-anchor="middle" x="394" y="-37.85" font-family="Times,serif" font-size="12.00">analyses</text>
<text text-anchor="middle" x="394" y="-23.6" font-family="Times,serif" font-size="12.00">▸ Config ▸ Raw State ▸ Decision</text>
</g>
<!-- Watchlist -->
<g id="node5" class="node">
<title>Watchlist</title>
<polygon fill="#fff3cd" stroke="#999999" points="639.62,-53.25 498.38,-53.25 498.38,-16 639.62,-16 639.62,-53.25"/>
<text text-anchor="middle" x="569" y="-37.85" font-family="Times,serif" font-size="12.00">watchlist</text>
<text text-anchor="middle" x="569" y="-23.6" font-family="Times,serif" font-size="12.00">▸ Stage ▸ Priority ▸ Thesis</text>
</g>
<!-- Trades -->
<g id="node6" class="node">
<title>Trades</title>
<polygon fill="#fff3cd" stroke="#999999" points="761.88,-53.25 658.12,-53.25 658.12,-16 761.88,-16 761.88,-53.25"/>
<text text-anchor="middle" x="710" y="-37.85" font-family="Times,serif" font-size="12.00">trades</text>
<text text-anchor="middle" x="710" y="-23.6" font-family="Times,serif" font-size="12.00">▸ Buy/Sell records</text>
</g>
<!-- Memory -->
<g id="node7" class="node">
<title>Memory</title>
<polygon fill="#f8d7da" stroke="#999999" points="411.25,-184.25 300.75,-184.25 300.75,-132.75 411.25,-132.75 411.25,-184.25"/>
<text text-anchor="middle" x="356" y="-168.85" font-family="Times,serif" font-size="12.00">Decision Memory</text>
<text text-anchor="middle" x="356" y="-154.6" font-family="Times,serif" font-size="12.00">trading_memory.md</text>
<text text-anchor="middle" x="356" y="-140.35" font-family="Times,serif" font-size="12.00">▸ Append&#45;only log</text>
</g>
<!-- Checkpoints -->
<g id="node8" class="node">
<title>Checkpoints</title>
<polygon fill="#f8d7da" stroke="#999999" points="568.5,-191.75 429.5,-191.75 429.5,-125.25 568.5,-125.25 568.5,-191.75"/>
<text text-anchor="middle" x="499" y="-176.35" font-family="Times,serif" font-size="12.00">Checkpoints</text>
<text text-anchor="middle" x="499" y="-162.1" font-family="Times,serif" font-size="12.00">~/.tradingagents/cache/</text>
<text text-anchor="middle" x="499" y="-147.85" font-family="Times,serif" font-size="12.00">▸ Per&#45;ticker SQLite</text>
<text text-anchor="middle" x="499" y="-132.85" font-family="Times,serif" font-size="12.00">▸ Auto&#45;cleared on success</text>
</g>
<!-- ExitPlans -->
<g id="node9" class="node">
<title>ExitPlans</title>
<polygon fill="#f8d7da" stroke="#999999" points="725.88,-184.25 586.12,-184.25 586.12,-132.75 725.88,-132.75 725.88,-184.25"/>
<text text-anchor="middle" x="656" y="-168.85" font-family="Times,serif" font-size="12.00">Exit Plans</text>
<text text-anchor="middle" x="656" y="-154.6" font-family="Times,serif" font-size="12.00">~/.tradingagents/positions/</text>
<text text-anchor="middle" x="656" y="-140.35" font-family="Times,serif" font-size="12.00">▸ Per&#45;position YAML</text>
</g>
<!-- Hono&#45;&gt;Signals -->
<g id="edge3" class="edge">
<title>Hono&#45;&gt;Signals</title>
<path fill="none" stroke="#666666" d="M198,-140.04C198,-120.42 198,-88.26 198,-64.81"/>
<polygon fill="#666666" stroke="#666666" points="201.5,-64.96 198,-54.96 194.5,-64.96 201.5,-64.96"/>
<text text-anchor="middle" x="222.75" y="-96.8" font-family="Times,serif" font-size="11.00">save signal</text>
</g>
<!-- Hono&#45;&gt;Analyses -->
<g id="edge4" class="edge">
<title>Hono&#45;&gt;Analyses</title>
<path fill="none" stroke="#666666" d="M226.08,-140.04C259.99,-118.95 317.21,-83.37 355.29,-59.69"/>
<polygon fill="#666666" stroke="#666666" points="357.08,-62.7 363.73,-54.45 353.39,-56.76 357.08,-62.7"/>
<text text-anchor="middle" x="325.62" y="-96.8" font-family="Times,serif" font-size="11.00">save analysis</text>
</g>
<!-- TradingGraph -->
<g id="node11" class="node">
<title>TradingGraph</title>
<polygon fill="#e8f4fd" stroke="#999999" points="489.25,-307.5 372.75,-307.5 372.75,-271.5 489.25,-271.5 489.25,-307.5"/>
<text text-anchor="middle" x="431" y="-285.23" font-family="Times,serif" font-size="12.00">TradingAgentsGraph</text>
</g>
<!-- TradingGraph&#45;&gt;Memory -->
<g id="edge5" class="edge">
<title>TradingGraph&#45;&gt;Memory</title>
<path fill="none" stroke="#666666" d="M404.09,-271.08C395.22,-264.15 386.02,-255.49 379.75,-245.75 370.14,-230.83 364.38,-212.04 360.94,-195.82"/>
<polygon fill="#666666" stroke="#666666" points="364.39,-195.22 359.11,-186.03 357.51,-196.51 364.39,-195.22"/>
<text text-anchor="middle" x="415.38" y="-235.3" font-family="Times,serif" font-size="11.00">append decision</text>
</g>
<!-- TradingGraph&#45;&gt;Checkpoints -->
<g id="edge6" class="edge">
<title>TradingGraph&#45;&gt;Checkpoints</title>
<path fill="none" stroke="#666666" d="M440.17,-271.1C449.42,-253.55 464.07,-225.76 476.43,-202.31"/>
<polygon fill="#666666" stroke="#666666" points="479.48,-204.05 481.04,-193.57 473.28,-200.78 479.48,-204.05"/>
<text text-anchor="middle" x="482.91" y="-235.3" font-family="Times,serif" font-size="11.00">checkpoint</text>
</g>
</g>
</svg>
